<svg version="1.1" xmlns="http://www.w3.org/2000/svg" width="512px" height="512px" transform="rotate(0) scale(1, 1)">
<path d="M0 0 C14.28911576 10.71474899 24.37124028 25.10813149 27 43 C28.26404987 58.58628446 26.69938385 75.61122687 16.25 88.08984375 C14.80150817 89.89694587 14.80150817 89.89694587 15.08984375 91.984375 C16.22575178 94.49994816 17.69928563 96.2174025 19.5625 98.25 C20.20316406 98.95640625 20.84382813 99.6628125 21.50390625 100.390625 C21.99761719 100.92171875 22.49132812 101.4528125 23 102 C26.93061039 100.58754835 30.09696203 98.6915114 33.5625 96.375 C59.95977116 79.58800959 95.34733406 74.37934985 125.8125 80.625 C162.28668661 88.81483167 191.52381294 109.77583583 211.64453125 141.109375 C221.4700657 156.96033813 229.1626252 176.93366464 229.0300293 195.74072266 C229.02569382 196.54128082 229.02135834 197.34183899 229.01689148 198.16665649 C229.01131729 198.77165985 229.0057431 199.37666321 229 200 C229.6712793 200.01030746 230.34255859 200.02061493 231.03417969 200.03123474 C238.04257149 200.13970394 245.05084516 200.25426713 252.05908203 200.37231445 C254.67201253 200.41553416 257.28496892 200.45721799 259.89794922 200.49731445 C263.66121204 200.55533202 267.42434613 200.61893491 271.1875 200.68359375 C272.34926758 200.70030624 273.51103516 200.71701874 274.70800781 200.73423767 C280.55098507 200.84013094 286.21913442 201.13225255 292 202 C292.14695312 201.26136719 292.29390625 200.52273437 292.4453125 199.76171875 C295.25294791 187.06281604 300.86785033 178.16358564 310 169 C310.92232422 168.04287109 310.92232422 168.04287109 311.86328125 167.06640625 C323.68141296 155.70379139 339.76858798 151.45265236 355.77050781 151.65258789 C371.692434 152.19611466 387.14234629 159.00204056 398.53125 170.16796875 C412.87553123 186.6230382 416.06810194 203.72799281 415 225 C414.50051672 228.98670139 413.57101219 232.31178142 412 236 C411.32130859 237.65322266 411.32130859 237.65322266 410.62890625 239.33984375 C403.50700769 255.06950459 391.57219732 266.20173994 375.6484375 273.00390625 C371.79224497 274.45424415 368.07370592 275.40549565 364 276 C363.10925781 276.1340625 362.21851563 276.268125 361.30078125 276.40625 C344.71640785 278.35474781 328.97545469 274.34142374 315.5 264.625 C304.69148116 255.91171542 294.67444455 243.01297507 292 229 C291.98510718 227.33339987 291.98356863 225.66658567 292 224 C291.34346939 223.98969254 290.68693878 223.97938507 290.01051331 223.96876526 C283.14794994 223.86018521 276.28550433 223.74563251 269.4230957 223.62768555 C266.86550369 223.58450101 264.30788591 223.54281505 261.75024414 223.50268555 C258.06388599 223.44458183 254.37765562 223.3810048 250.69140625 223.31640625 C248.98930748 223.29133751 248.98930748 223.29133751 247.25282288 223.26576233 C241.10164818 223.15221003 235.10217441 222.79055372 229 222 C228.87044922 223.4540625 228.87044922 223.4540625 228.73828125 224.9375 C225.43773339 257.88485573 208.06544311 287.75981581 183.125 309.25 C167.67464741 321.68177471 150.17192508 330.26664433 131 335 C129.21335938 335.47953125 129.21335938 335.47953125 127.390625 335.96875 C113.85575862 339.10558598 99.80574087 338.27292371 86 338 C85.85014648 338.65162109 85.70029297 339.30324219 85.54589844 339.97460938 C84.01674083 346.36531358 82.2330984 352.63987184 80.265625 358.90625 C80.02187134 359.68508545 79.77811768 360.4639209 79.52697754 361.26635742 C78.5110515 364.50521102 77.49168251 367.7428575 76.45947266 370.9765625 C75.69822411 373.36702522 74.94974603 375.76118508 74.203125 378.15625 C73.96676331 378.88541626 73.73040161 379.61458252 73.48687744 380.36584473 C71.89431261 385.21743693 71.89431261 385.21743693 73 390 C74.63876414 391.36748223 76.30915741 392.69746137 78 394 C90.01878272 408.24954164 95.98293466 424.34944492 95 443 C93.05763709 460.4075056 85.1054076 475.76346358 71.5859375 487.0078125 C57.78805437 497.12626013 42.06350197 501.53571518 25 500 C6.61262832 497.10085475 -7.46167425 488.61971098 -19 474 C-28.53032489 459.78938834 -32.36645005 442.82653699 -29.34765625 425.9375 C-26.01329201 410.00218495 -17.89383922 396.49193863 -4.89453125 386.6484375 C4.65167537 380.43933356 15.50955775 375.58425978 27 375 C27.66773437 374.96132813 28.33546875 374.92265625 29.0234375 374.8828125 C35.96283792 374.65734462 44.73671736 374.86835868 51 378 C51.21398437 376.72382813 51.42796875 375.44765625 51.6484375 374.1328125 C53.3021374 365.864313 56.05574177 357.8938072 58.625 349.875 C59.1463195 348.23452942 59.66715685 346.59390553 60.1875 344.953125 C61.45278016 340.96696038 62.72457141 336.98292851 64 333 C63.17556396 332.8443457 63.17556396 332.8443457 62.33447266 332.68554688 C56.69381402 331.53845697 51.61786717 329.86118454 46.375 327.5 C45.59938721 327.15106689 44.82377441 326.80213379 44.0246582 326.44262695 C30.88233843 320.3303263 19.72648573 311.64633612 9 302 C8.00419922 301.11248047 8.00419922 301.11248047 6.98828125 300.20703125 C-15.69355867 278.79410545 -28.90477385 245.66096777 -30.2890625 214.88671875 C-31.22914881 177.96164366 -18.69455091 146.9517279 5 119 C3.74833586 115.48197311 2.37397315 112.95810067 -0.125 110.1875 C-0.66382812 109.58292969 -1.20265625 108.97835937 -1.7578125 108.35546875 C-2.37269531 107.68451172 -2.37269531 107.68451172 -3 107 C-3.93199219 107.40992187 -4.86398438 107.81984375 -5.82421875 108.2421875 C-14.15023428 111.80215558 -21.89398131 114.24714019 -31 115 C-31.83789062 115.07089844 -32.67578125 115.14179687 -33.5390625 115.21484375 C-50.92008737 115.9225402 -65.46826908 108.84460897 -78.4140625 97.97265625 C-89.39254707 87.84302358 -96.56320026 73.44162707 -97.375 58.52734375 C-97.93723498 40.61362727 -94.38715863 25.00659173 -82.8125 10.75 C-61.28181123 -12.03303309 -26.55828166 -17.47696447 0 0 Z M-39.125 7.5 C-39.41375 8.325 -39.7025 9.15 -40 10 C-38.99832661 12.07033692 -38.99832661 12.07033692 -37 14 C-34.3955851 14.65256688 -32.0175735 15.09736378 -29.375 15.4375 C-17.43913174 17.32485833 -10.30220045 22.28245633 -3 32 C0.22991799 38.23348055 2.33414687 44.14363417 2.75390625 51.15234375 C3.09415393 53.70690172 4.20252659 55.20252659 6 57 C9.29075996 56.62095792 9.29075996 56.62095792 12 55 C13.27060657 44.47211701 10.27071599 35.77826491 5.125 26.6875 C4.42375 25.800625 3.7225 24.91375 3 24 C2.53207031 23.37867187 2.06414062 22.75734375 1.58203125 22.1171875 C-6.25225838 12.32897766 -17.50336313 6.36772216 -29.875 4.5859375 C-35.21975514 4.19437934 -35.21975514 4.19437934 -39.125 7.5 Z M29 138 C28.39414063 138.52980469 27.78828125 139.05960938 27.1640625 139.60546875 C10.67322561 154.6640029 1.33092183 179.47618636 -0.23828125 201.31640625 C-0.48435334 209.98336387 -0.48435334 209.98336387 4 217 C7.21694364 218.60847182 10.52137222 218.61309149 14 218 C16.69105198 215.82425584 18.45532928 214.08934144 20 211 C20.19325006 209.08010268 20.38210644 207.15961631 20.54394531 205.23681641 C22.19214209 186.34504437 28.24380805 169.338544 41 155 C41.59296875 154.31292969 42.1859375 153.62585938 42.796875 152.91796875 C55.39914382 139.26551086 73.93179684 131.36380814 92.203125 129.55078125 C93.27385254 129.44092896 93.27385254 129.44092896 94.36621094 129.32885742 C96.39818919 129.13472678 98.43350834 128.97656137 100.46875 128.8203125 C104.74104385 127.82785486 106.30661254 126.40693414 109 123 C110.09297103 119.17460138 110.36320775 116.9988213 109 113.25 C106.27839367 110.18819287 103.85235988 109.35545996 100 108 C72.88610419 108 48.45457863 119.68406727 29 138 Z M349 169 C349.32198966 172.09926819 349.32198966 172.09926819 350 175 C351.18335938 175.21914062 352.36671875 175.43828125 353.5859375 175.6640625 C365.53932093 178.0064248 375.50165909 180.81086916 383.46875 190.67578125 C388.12362318 197.74121375 390.44079994 205.38030192 391.4453125 213.72265625 C392.0806071 216.33094325 392.95604501 217.31511819 395 219 C396.65 218.34 398.3 217.68 400 217 C402.54027859 206.83888562 398.1463069 196.6899068 393 188 C386.80171463 177.77468492 376.6574201 171.88959249 365.6875 167.75 C356.75314144 165.83809778 356.75314144 165.83809778 349 169 Z M-13.66015625 434.2578125 C-16.12158302 437.45838492 -15.48392659 441.20471057 -15 445 C-13.16344172 453.40458873 -10.23998289 460.19947576 -5 467 C-4.38125 467.886875 -3.7625 468.77375 -3.125 469.6875 C4.9776594 478.50509994 15.72582102 483.96953567 27.6015625 485.2890625 C32.00092011 485.57512816 32.00092011 485.57512816 35.76171875 483.60546875 C37.24139966 482.06321768 37.24139966 482.06321768 36.8125 479.9375 C36.06529664 477.81287474 36.06529664 477.81287474 34 476 C32.17943945 475.63704014 30.34176026 475.35759343 28.5 475.125 C17.37537339 473.35939697 9.54912249 469.58159572 2 461 C-2.22867368 454.50348961 -4.69442158 447.46119119 -5.4375 439.75 C-5.70196346 436.12075321 -5.70196346 436.12075321 -7.375 434 C-9.82180996 432.49427079 -11.37538177 432.52675984 -13.66015625 434.2578125 Z " fill="#00a881" transform="translate(97,11)"/>
</svg>